<?xml version="1.0" standalone="no"?>
<!DOCTYPE svg PUBLIC "-//W3C//DTD SVG 20010904//EN"
 "http://www.w3.org/TR/2001/REC-SVG-20010904/DTD/svg10.dtd">
<svg version="1.0" xmlns="http://www.w3.org/2000/svg"
 width="350.000000pt" height="150.000000pt" viewBox="0 0 350.000000 150.000000"
 preserveAspectRatio="xMidYMid meet">

<g transform="translate(0.000000,150.000000) scale(0.100000,-0.100000)"
fill="#000000" stroke="none">
<path d="M250 1006 c0 -16 21 -26 56 -26 l24 0 0 -235 0 -235 -41 0 c-33 0
-40 -3 -37 -17 3 -16 18 -18 148 -18 130 0 145 2 148 17 3 16 -6 18 -88 18
l-91 0 3 93 3 92 110 5 c93 4 117 9 153 30 114 65 110 208 -8 268 -41 20 -58
22 -212 22 -137 0 -168 -3 -168 -14z m360 -41 c94 -48 92 -158 -3 -204 -35
-17 -62 -21 -140 -21 l-97 0 0 120 0 120 105 0 c74 0 115 -4 135 -15z"/>
<path d="M1520 1006 c0 -20 22 -26 91 -26 53 0 60 -2 55 -17 -4 -10 -46 -115
-94 -233 -83 -202 -90 -215 -116 -218 -19 -3 -26 -8 -24 -20 3 -14 18 -17 93
-20 50 -1 96 2 104 7 25 16 1 31 -50 31 -57 0 -57 -3 -13 96 l24 55 141 -3
141 -3 28 -70 28 -70 -52 -5 c-36 -4 -51 -9 -51 -20 0 -12 18 -15 100 -15 82
0 100 3 100 15 0 9 -11 16 -25 18 -23 3 -34 26 -127 255 l-101 252 -126 3
c-104 2 -126 0 -126 -12z m272 -150 c26 -65 50 -127 53 -137 6 -18 -1 -19
-114 -19 -67 0 -121 4 -121 9 0 5 18 53 41 107 23 55 47 114 55 132 7 19 19
32 26 30 7 -3 34 -58 60 -122z"/>
<path d="M2770 1006 c0 -16 21 -26 56 -26 l24 0 0 -235 0 -235 -41 0 c-33 0
-40 -3 -37 -17 3 -16 18 -18 148 -18 130 0 145 2 148 17 3 16 -6 18 -82 18
l-86 0 0 95 0 95 98 0 c85 0 105 3 149 25 100 50 126 148 61 230 -42 54 -85
65 -270 65 -137 0 -168 -3 -168 -14z m360 -41 c94 -48 93 -157 -1 -206 -30
-15 -59 -19 -134 -19 l-95 0 0 120 0 120 100 0 c70 0 110 -5 130 -15z"/>
<path d="M1039 559 c-24 -24 -20 -65 8 -86 26 -20 90 -16 113 7 24 24 25 48 4
78 -21 30 -95 31 -125 1z"/>
<path d="M2305 566 c-11 -8 -18 -26 -18 -46 0 -41 24 -60 75 -60 65 0 96 49
62 98 -12 17 -25 22 -58 22 -23 0 -51 -6 -61 -14z"/>
</g>
</svg>
