<?xml version="1.0" encoding="utf-8"?>
<!-- Generator: Adobe Illustrator 24.0.3, SVG Export Plug-In . SVG Version: 6.00 Build 0)  -->
<svg version="1.1" id="Layer_1" xmlns="http://www.w3.org/2000/svg" xmlns:xlink="http://www.w3.org/1999/xlink" x="0px" y="0px"
	 viewBox="0 0 315.8 103.94" style="enable-background:new 0 0 315.8 103.94;" xml:space="preserve">
<style type="text/css">
	.st0{fill:#636569;}
	.st1{fill:#0069A7;}
</style>
<g>
	<g>
		<g>
			<path class="st0" d="M90.12,103.77v-10.8h3.81c0.81,0,1.57,0.14,2.26,0.41c0.69,0.27,1.3,0.65,1.81,1.13
				c0.51,0.48,0.91,1.05,1.2,1.72c0.29,0.67,0.43,1.39,0.43,2.16c0,0.77-0.14,1.49-0.43,2.14c-0.29,0.66-0.68,1.23-1.19,1.71
				c-0.5,0.48-1.11,0.85-1.81,1.13s-1.46,0.41-2.27,0.41H90.12z M93.96,94.42h-2.22v7.9h2.22c0.56,0,1.08-0.1,1.57-0.3
				c0.49-0.2,0.92-0.48,1.27-0.83c0.35-0.35,0.63-0.77,0.84-1.25c0.21-0.48,0.31-1,0.31-1.55c0-0.56-0.1-1.08-0.31-1.57
				c-0.21-0.49-0.49-0.91-0.84-1.27c-0.35-0.35-0.78-0.63-1.27-0.83C95.04,94.52,94.52,94.42,93.96,94.42z"/>
			<path class="st0" d="M101.35,103.77v-10.8h7.96v1.42h-6.34v3.24h4.17v1.39h-4.17v3.33h6.4v1.42H101.35z"/>
			<path class="st0" d="M116.58,103l-4.03-8.02v8.8h-1.51v-10.8h2.16l3.4,6.9l3.38-6.9h2.16v10.8h-1.53v-8.81L116.58,103z"/>
			<path class="st0" d="M135.12,98.37c0,0.77-0.15,1.5-0.44,2.18c-0.29,0.68-0.69,1.28-1.2,1.77s-1.1,0.89-1.79,1.18
				c-0.69,0.29-1.42,0.43-2.21,0.43s-1.52-0.14-2.21-0.43c-0.69-0.29-1.28-0.68-1.78-1.18c-0.5-0.5-0.9-1.09-1.19-1.77
				c-0.29-0.68-0.44-1.41-0.44-2.18s0.15-1.5,0.44-2.18c0.29-0.68,0.69-1.28,1.19-1.77c0.5-0.5,1.09-0.89,1.78-1.18
				c0.69-0.29,1.42-0.43,2.21-0.43s1.52,0.14,2.21,0.43c0.69,0.29,1.29,0.68,1.79,1.18s0.9,1.09,1.2,1.77
				C134.97,96.87,135.12,97.6,135.12,98.37z M133.47,98.37c0-0.58-0.1-1.11-0.31-1.61c-0.21-0.5-0.49-0.93-0.84-1.3
				s-0.78-0.65-1.27-0.86c-0.49-0.21-1.01-0.31-1.57-0.31s-1.08,0.1-1.56,0.31c-0.48,0.21-0.9,0.49-1.26,0.86
				c-0.35,0.37-0.64,0.8-0.84,1.3s-0.31,1.04-0.31,1.61s0.1,1.11,0.31,1.61s0.49,0.93,0.84,1.29c0.35,0.36,0.77,0.65,1.26,0.86
				c0.48,0.21,1,0.32,1.56,0.32s1.08-0.11,1.57-0.32c0.49-0.21,0.91-0.5,1.27-0.86c0.35-0.36,0.64-0.79,0.84-1.29
				C133.36,99.49,133.47,98.95,133.47,98.37z"/>
			<path class="st0" d="M136.85,103.77v-10.8h1.62V98l5.23-5.03h2.04l-5.57,5.22l5.76,5.59h-2.22l-5.23-5.14v5.14H136.85z"/>
			<path class="st0" d="M146.88,103.77v-10.8h4.91c1.07,0,1.94,0.3,2.6,0.89c0.66,0.59,1,1.36,1,2.31c0,0.71-0.2,1.32-0.6,1.84
				c-0.4,0.52-0.94,0.89-1.62,1.12l2.41,4.64h-1.79l-2.24-4.43h-3.04v4.43H146.88z M151.64,94.39h-3.15V98h3.15
				c0.63,0,1.13-0.17,1.52-0.5c0.39-0.33,0.58-0.77,0.58-1.3c0-0.54-0.19-0.98-0.58-1.31S152.27,94.39,151.64,94.39z"/>
			<path class="st0" d="M156.12,103.77l4.47-10.8h1.9l4.41,10.8h-1.76l-1.25-3.16h-4.83l-1.27,3.16H156.12z M159.61,99.27h3.77
				l-1.88-4.74L159.61,99.27z"/>
			<path class="st0" d="M167.35,101.98l0.99-1.14c0.59,0.57,1.19,0.99,1.8,1.27c0.61,0.28,1.25,0.42,1.92,0.42
				c0.77,0,1.4-0.17,1.89-0.51c0.49-0.34,0.73-0.77,0.73-1.3c0-0.47-0.17-0.84-0.51-1.1c-0.34-0.26-0.9-0.46-1.68-0.59l-1.81-0.29
				c-0.99-0.16-1.73-0.48-2.21-0.95c-0.49-0.47-0.73-1.09-0.73-1.86c0-0.94,0.36-1.69,1.1-2.25c0.73-0.57,1.69-0.85,2.89-0.85
				c0.77,0,1.54,0.13,2.3,0.38s1.45,0.61,2.05,1.09l-0.9,1.23c-0.59-0.44-1.17-0.77-1.76-1s-1.18-0.33-1.77-0.33
				c-0.7,0-1.27,0.15-1.7,0.45s-0.65,0.68-0.65,1.16c0,0.44,0.15,0.78,0.45,1.01s0.79,0.4,1.48,0.52l1.74,0.28
				c1.13,0.19,1.97,0.52,2.51,1.01c0.54,0.49,0.81,1.15,0.81,1.98c0,0.49-0.1,0.95-0.31,1.36c-0.21,0.41-0.5,0.76-0.87,1.05
				c-0.38,0.29-0.83,0.51-1.37,0.67c-0.53,0.16-1.12,0.24-1.76,0.24c-0.86,0-1.7-0.17-2.5-0.51S167.97,102.6,167.35,101.98z"/>
			<path class="st0" d="M178.6,91.54c-0.26,0-0.48-0.09-0.66-0.26c-0.18-0.17-0.27-0.39-0.27-0.65c0-0.26,0.09-0.47,0.27-0.64
				c0.18-0.17,0.4-0.25,0.66-0.25c0.26,0,0.48,0.08,0.66,0.25c0.18,0.17,0.27,0.38,0.27,0.64c0,0.26-0.09,0.47-0.27,0.65
				C179.08,91.45,178.86,91.54,178.6,91.54z M177.78,103.77v-10.8h1.62v10.8H177.78z"/>
			<path class="st0" d="M188.17,103.77l-4.41-10.8h1.74l3.66,9.2l3.72-9.2h1.67l-4.48,10.8H188.17z"/>
			<path class="st0" d="M195.65,103.77v-10.8h7.96v1.42h-6.34v3.24h4.17v1.39h-4.17v3.33h6.4v1.42H195.65z"/>
			<path class="st0" d="M207.49,103.77l4.47-10.8h1.9l4.41,10.8h-1.76l-1.25-3.16h-4.83l-1.27,3.16H207.49z M210.97,99.27h3.76
				l-1.88-4.74L210.97,99.27z"/>
			<path class="st0" d="M216.51,94.41v-1.44h9.21v1.44h-3.8v9.37h-1.62v-9.37H216.51z"/>
			<path class="st0" d="M227.08,103.77v-10.8h1.62v10.8H227.08z"/>
			<path class="st0" d="M230.91,103.77v-10.8h1.62v9.37h6.22v1.44H230.91z"/>
			<path class="st0" d="M240.39,103.77v-10.8h1.62v10.8H240.39z"/>
			<path class="st0" d="M249.75,103l-4.03-8.02v8.8h-1.51v-10.8h2.16l3.39,6.9l3.38-6.9h2.16v10.8h-1.53v-8.81L249.75,103z"/>
			<path class="st0" d="M260.72,103.77v-10.8h5c1.05,0,1.9,0.3,2.55,0.9c0.65,0.6,0.98,1.38,0.98,2.34c0,0.95-0.33,1.72-0.99,2.31
				s-1.51,0.9-2.55,0.9h-3.38v4.35H260.72z M265.55,94.39h-3.21v3.66h3.21c0.63,0,1.13-0.17,1.5-0.5c0.38-0.33,0.56-0.78,0.56-1.33
				c0-0.56-0.19-1-0.56-1.33C266.68,94.56,266.18,94.39,265.55,94.39z"/>
			<path class="st0" d="M268.24,103.77l4.47-10.8h1.9l4.41,10.8h-1.76l-1.25-3.16h-4.83l-1.27,3.16H268.24z M271.73,99.27h3.76
				l-1.88-4.74L271.73,99.27z"/>
			<path class="st0" d="M280.14,103.77v-10.8h4.91c1.07,0,1.94,0.3,2.6,0.89c0.66,0.59,1,1.36,1,2.31c0,0.71-0.2,1.32-0.6,1.84
				c-0.4,0.52-0.94,0.89-1.62,1.12l2.41,4.64h-1.79l-2.24-4.43h-3.04v4.43H280.14z M284.91,94.39h-3.15V98h3.15
				c0.63,0,1.13-0.17,1.52-0.5c0.39-0.33,0.58-0.77,0.58-1.3c0-0.54-0.19-0.98-0.58-1.31S285.53,94.39,284.91,94.39z"/>
			<path class="st0" d="M289.21,94.41v-1.44h9.21v1.44h-3.8v9.37h-1.62v-9.37H289.21z"/>
			<path class="st0" d="M300.6,91.54c-0.26,0-0.48-0.09-0.66-0.26c-0.18-0.17-0.27-0.39-0.27-0.65c0-0.26,0.09-0.47,0.27-0.64
				c0.18-0.17,0.4-0.25,0.66-0.25c0.26,0,0.48,0.08,0.66,0.25c0.18,0.17,0.27,0.38,0.27,0.64c0,0.26-0.09,0.47-0.27,0.65
				C301.07,91.45,300.86,91.54,300.6,91.54z M299.78,103.77v-10.8h1.62v10.8H299.78z"/>
			<path class="st0" d="M302.64,101.98l0.99-1.14c0.59,0.57,1.19,0.99,1.8,1.27c0.61,0.28,1.25,0.42,1.92,0.42
				c0.77,0,1.4-0.17,1.89-0.51c0.49-0.34,0.73-0.77,0.73-1.3c0-0.47-0.17-0.84-0.51-1.1c-0.34-0.26-0.9-0.46-1.68-0.59l-1.8-0.29
				c-0.99-0.16-1.73-0.48-2.21-0.95s-0.73-1.09-0.73-1.86c0-0.94,0.37-1.69,1.1-2.25s1.69-0.85,2.89-0.85c0.77,0,1.54,0.13,2.3,0.38
				c0.76,0.25,1.45,0.61,2.05,1.09l-0.89,1.23c-0.59-0.44-1.17-0.77-1.76-1c-0.59-0.22-1.18-0.33-1.77-0.33
				c-0.7,0-1.27,0.15-1.7,0.45s-0.65,0.68-0.65,1.16c0,0.44,0.15,0.78,0.45,1.01c0.3,0.23,0.79,0.4,1.48,0.52l1.74,0.28
				c1.13,0.19,1.97,0.52,2.51,1.01c0.54,0.49,0.81,1.15,0.81,1.98c0,0.49-0.1,0.95-0.31,1.36c-0.21,0.41-0.5,0.76-0.87,1.05
				c-0.38,0.29-0.83,0.51-1.37,0.67c-0.54,0.16-1.12,0.24-1.76,0.24c-0.86,0-1.7-0.17-2.5-0.51S303.25,102.6,302.64,101.98z"/>
			<path class="st0" d="M313.88,91.54c-0.26,0-0.48-0.09-0.66-0.26c-0.18-0.17-0.27-0.39-0.27-0.65c0-0.26,0.09-0.47,0.27-0.64
				c0.18-0.17,0.4-0.25,0.66-0.25c0.26,0,0.48,0.08,0.66,0.25c0.18,0.17,0.27,0.38,0.27,0.64c0,0.26-0.09,0.47-0.27,0.65
				C314.36,91.45,314.14,91.54,313.88,91.54z M313.07,103.77v-10.8h1.62v10.8H313.07z"/>
		</g>
		<g>
			<path class="st0" d="M89.03,68.72h5.54V31.83h-5.54v-9.9h25.98c20.81,0,28.71,12.26,28.71,27.89c0,14.45-7.63,28.8-28.98,28.8
				H89.03V68.72z M113.28,68.72c12.36,0,15.72-8.27,15.72-18.53c0-10.18-3.18-18.35-15.17-18.35h-5.27v36.88H113.28z"/>
			<path class="st0" d="M254.84,78.62v-9.9h4.54l14.17-36.88h-5.63v-9.9h25.62l17.81,46.79h4.45v9.9H290.9v-9.9h5.72l-2.27-6.36
				h-19.99l-2.18,6.36h5.27v9.9H254.84z M277.37,52.91h13.9l-3.45-10.08c-1.27-3.73-2.54-7.45-3.27-10.63h-0.27
				c-0.73,3.18-1.91,6.91-3.27,10.63L277.37,52.91z"/>
			<g>
				<path class="st0" d="M193.78,60.63v17.99h-44.61v-9.9h5.54V31.83h-5.54v-9.9h44.34V39.1h-11.36v-7.27h-13.63v12.99h15.44v9.72
					h-15.44v14.17h13.81v-8.09H193.78z"/>
				<path class="st0" d="M255.11,31.83l-16.54,46.79h-16.54l-15.9-46.79h-4.82v-9.9h25.35v9.9h-6.09L228.03,56
					c1.27,4.09,2.63,8.99,3.09,11.27h0.36c0.45-2.27,1.91-7.27,3.09-11.27l7.36-24.17h-6.09v-9.9h24.26l0,9.9H255.11z"/>
			</g>
		</g>
	</g>
	<path class="st1" d="M68.62,61.09c-0.63-3.6-2.01-6.95-3.61-10.21c-2.73-5.56-21.9-34.19-27.65-45.52c-0.9-1.76-1.8-3.53-2.73-5.36
		c-0.82,1.62-1.58,3.19-2.4,4.73c-4.37,8.14-21.27,34.13-25.26,41c-2.13,3.67-4.08,7.46-5.35,11.53C-0.27,63.24-0.4,69.37,0.69,75.5
		c1.44,8.08,5.37,14.82,11.66,20.06c5.79,4.82,12.19,7.57,19.1,8.12l1.02-28.81l-0.09-0.09c-10.14-0.71-18.14-9.16-18.14-19.47l0,0
		h0h0c10.48,0,19.03,8.25,19.51,18.62l0.02,0.02l-0.02,0.02c0.01,0.14,0.01,0.27,0.01,0.41l0.01,0.01l0.38,11.03
		c1.92-9.75,10.51-17.1,20.82-17.1h0l0,0h0l0,0c0,11.43-9.04,20.75-20.37,21.2l-0.3,0.3l0.48,13.96l0.77-0.01
		c1.98-0.08,4-0.34,6.06-0.78c11.88-2.51,20.18-9.63,25.01-20.76c1.6-3.69,2.38-7.6,2.54-11.62C69.27,67.42,69.17,64.24,68.62,61.09
		z"/>
</g>
</svg>
